# xmcd
#
# Track frame offsets: 
#        150
#        15721
#        41366
#        76279
#        80681
#        93749
#        114914
#        146479
#        157449
#        178419
#        196706
#        217789
#
# Disc length: 3109 seconds
#
# Revision: 2
# Processed by: cddbd v1.5PL3 Copyright (c) Steve Scherf et al.
# Submitted via: ExactAudioCopy v0.90b4
#
DISCID=9d0c230c
DTITLE=Das Dritte Ohr - Himmel Oder Hölle
DYEAR=1997
DGENRE=Blues
TTITLE0=Himmel oder Hölle
TTITLE1=Plapper-Popper
TTITLE2=Wach gelegen
TTITLE3=Morgenstund hat Blei im Mund
TTITLE4=Nicht mein Tag
TTITLE5=Wo stehst Du
TTITLE6=Ich frag mich warum
TTITLE7=Vollmond
TTITLE8=Unsere Sache
TTITLE9=Night Of The Nights
TTITLE10=Aint´t Gonna Write No More Rubbish
TTITLE11=Heaven Or Hell
EXTD=
EXTT0=
EXTT1=
EXTT2=
EXTT3=
EXTT4=
EXTT5=
EXTT6=
EXTT7=
EXTT8=
EXTT9=
EXTT10=
EXTT11=
PLAYORDER=
